<?xml version="1.0" encoding="utf-8"?>
<svg viewBox="2.989 1.857 266.162 353.846" width="266.162" height="353.846" xmlns="http://www.w3.org/2000/svg" xmlns:xlink="http://www.w3.org/1999/xlink">
  <defs>
    <pattern patternTransform="matrix(0.70710678,-0.70710678,0.70710678,0.70710678,127.76526,536.84923)" id="pattern4529" xlink:href="#pattern3800"/>
    <pattern id="pattern3800" patternTransform="translate(127.76526,536.84923)" height="17.115901" width="16.771802" patternUnits="userSpaceOnUse">
      <g transform="translate(-127.76526,-536.84923)" id="g3794">
        <path transform="matrix(0.62548599,0,0,0.62548599,47.849879,201.05756)" d="m 139.93132,538.16935 -1.53091,4.51447 2.85103,3.82044 -4.7666,-0.0609 -2.75244,3.89206 -1.41502,-4.55212 -4.55212,-1.41502 3.89206,-2.75244 -0.0609,-4.76659 3.82044,2.85102 z" id="path3018" style="fill:#d40000;fill-opacity:1;stroke:none"/>
        <path style="fill:#d40000;fill-opacity:1;stroke:none" id="path3788" d="m 139.93132,538.16935 -1.53091,4.51447 2.85103,3.82044 -4.7666,-0.0609 -2.75244,3.89206 -1.41502,-4.55212 -4.55212,-1.41502 3.89206,-2.75244 -0.0609,-4.76659 3.82044,2.85102 z" transform="matrix(0.312743,0.54168676,-0.54168676,0.312743,392.29373,297.90436)"/>
        <path style="fill:#d40000;fill-opacity:1;stroke:none" id="path3790" d="m 139.93132,538.16935 -1.53091,4.51447 2.85103,3.82044 -4.7666,-0.0609 -2.75244,3.89206 -1.41502,-4.55212 -4.55212,-1.41502 3.89206,-2.75244 -0.0609,-4.76659 3.82044,2.85102 z" transform="matrix(0.62548599,0,0,-0.62548599,47.849879,889.7568)"/>
        <path transform="matrix(0.312743,-0.54168676,-0.54168676,-0.312743,392.29373,792.91)" d="m 139.93132,538.16935 -1.53091,4.51447 2.85103,3.82044 -4.7666,-0.0609 -2.75244,3.89206 -1.41502,-4.55212 -4.55212,-1.41502 3.89206,-2.75244 -0.0609,-4.76659 3.82044,2.85102 z" id="path3792" style="fill:#d40000;fill-opacity:1;stroke:none"/>
      </g>
    </pattern>
    <pattern patternTransform="matrix(0.70710678,-0.70710678,0.70710678,0.70710678,127.76526,536.84923)" id="pattern-1" xlink:href="#pattern3800"/>
    <pattern patternTransform="matrix(0.70710678,-0.70710678,0.70710678,0.70710678,127.76526,536.84923)" id="pattern-2" xlink:href="#pattern3800"/>
  </defs>
  <g id="layer1" transform="matrix(1, 0, 0, 1, -214.010681, -368.918213)">
    <g transform="translate(811.37551,-119.72681)" id="g15148" style="display:inline">
      <rect rx="10.629921" ry="10.629921" y="490.50238" x="-550.44244" height="310.81104" width="222.22835" id="rect13068" style="fill:#ffffff;stroke:#000000;stroke-width:1;stroke-opacity:1"/>
      <rect ry="0" y="502.58582" x="-537.85431" height="286.64417" width="197.05205" id="rect13070" style="fill:none;stroke:#d40000;stroke-width:4.95238304;stroke-linecap:round;stroke-linejoin:miter;stroke-miterlimit:4;stroke-dasharray:none;stroke-opacity:1"/>
      <rect y="506.45496" x="-533.46661" height="278.90585" width="188.27672" id="rect13072" style="fill:url(#pattern4529);fill-opacity:1;stroke:#d40000;stroke-width:1;stroke-linecap:round;stroke-linejoin:miter;stroke-miterlimit:4;stroke-dasharray:none;stroke-opacity:1"/>
    </g>
  </g>
  <g id="g-1" transform="matrix(1, 0, 0, 1, -236.928833, -346.810028)">
    <g transform="translate(811.37551,-119.72681)" id="g-2" style="display:inline">
      <rect rx="10.629921" ry="10.629921" y="490.50238" x="-550.44244" height="310.81104" width="222.22835" id="rect-1" style="fill:#ffffff;stroke:#000000;stroke-width:1;stroke-opacity:1"/>
      <rect ry="0" y="502.58582" x="-537.85431" height="286.64417" width="197.05205" id="rect-2" style="fill:none;stroke:#d40000;stroke-width:4.95238304;stroke-linecap:round;stroke-linejoin:miter;stroke-miterlimit:4;stroke-dasharray:none;stroke-opacity:1"/>
      <rect y="506.45496" x="-533.46661" height="278.90585" width="188.27672" id="rect-3" style="fill-opacity: 1; stroke: rgb(212, 0, 0); stroke-width: 1; stroke-linecap: round; stroke-linejoin: miter; stroke-miterlimit: 4; stroke-dasharray: none; stroke-opacity: 1; fill: url(#pattern-1);"/>
    </g>
  </g>
  <g id="g-3" transform="matrix(1, 0, 0, 1, -257.944244, -325.883148)">
    <g transform="translate(811.37551,-119.72681)" id="g-4" style="display:inline">
      <rect rx="10.629921" ry="10.629921" y="490.50238" x="-550.44244" height="310.81104" width="222.22835" id="rect-4" style="fill:#ffffff;stroke:#000000;stroke-width:1;stroke-opacity:1"/>
      <rect ry="0" y="502.58582" x="-537.85431" height="286.64417" width="197.05205" id="rect-5" style="fill:none;stroke:#d40000;stroke-width:4.95238304;stroke-linecap:round;stroke-linejoin:miter;stroke-miterlimit:4;stroke-dasharray:none;stroke-opacity:1"/>
      <rect y="506.45496" x="-533.46661" height="278.90585" width="188.27672" id="rect-6" style="fill-opacity: 1; stroke: rgb(212, 0, 0); stroke-width: 1; stroke-linecap: round; stroke-linejoin: miter; stroke-miterlimit: 4; stroke-dasharray: none; stroke-opacity: 1; fill: url(#pattern-2);"/>
    </g>
  </g>
</svg>